@startuml factory_method

abstract class Creator {
  create()
  {abstract} factoryMethod()
}

abstract class Product {
  {abstract} method1()
  {abstract} method2()
  {abstract} method3()
}

class ConcreteCreator {
  factoryMethod()
}

class ConcreteProduct {
  method1()
  method2()
  method3()
}

Creator <|-- ConcreteCreator
Product <|-- ConcreteProduct
Product <-- Creator : Creates
ConcreteProduct <-- ConcreteCreator : Creates

@enduml